<svg width="668" height="534" viewBox="0 0 668 534" fill="none" xmlns="http://www.w3.org/2000/svg">
<g clip-path="url(#clip0_240_2)">
<path d="M559 0.333008C618.831 0.333008 667.333 48.8355 667.333 108.666V425.486C667.333 485.317 618.831 533.819 559 533.819H109C49.169 533.819 0.666504 485.317 0.666504 425.486V108.666C0.666504 50.8986 45.8817 3.69147 102.852 0.504494L109 0.333008H559ZM559 50.333H109L104.216 50.5264C74.2368 52.9599 50.6665 78.0606 50.6665 108.666V425.486C50.6665 457.703 76.7832 483.819 109 483.819H559C591.216 483.819 617.333 457.703 617.333 425.486V108.666C617.333 76.4497 591.216 50.333 559 50.333ZM117.333 267C117.333 162.147 207.774 107.823 288.054 153.618C300.047 160.459 304.223 175.727 297.382 187.72C290.54 199.713 275.272 203.89 263.279 197.048C216.69 170.472 167.333 200.119 167.333 267C167.333 333.819 216.803 363.54 263.306 337.09C275.308 330.264 290.571 334.459 297.397 346.461C304.224 358.462 300.028 373.725 288.027 380.552C207.846 426.157 117.333 371.777 117.333 267ZM367.333 267C367.333 162.147 457.774 107.823 538.054 153.618C550.047 160.459 554.223 175.727 547.382 187.72C540.54 199.713 525.272 203.89 513.279 197.048C466.69 170.472 417.333 200.119 417.333 267C417.333 333.819 466.803 363.54 513.306 337.09C525.308 330.264 540.571 334.459 547.397 346.461C554.224 358.462 550.028 373.725 538.027 380.552C457.846 426.157 367.333 371.777 367.333 267Z" fill="white"/>
</g>
<defs>
<clipPath id="clip0_240_2">
<rect width="668" height="534" fill="white"/>
</clipPath>
</defs>
</svg>
