<svg width="668" height="534" viewBox="0 0 668 534" fill="none" xmlns="http://www.w3.org/2000/svg">
<path d="M559 0.333008C618.831 0.333008 667.333 48.8355 667.333 108.666V425.486C667.333 485.317 618.831 533.819 559 533.819H109C49.169 533.819 0.666504 485.317 0.666504 425.486V108.666C0.666504 50.8986 45.8817 3.69147 102.852 0.504494L109 0.333008H559Z" fill="white"/>
<path d="M288.054 153.617C207.774 107.822 117.333 162.146 117.333 266.999C117.333 371.777 207.846 426.156 288.026 380.551C300.028 373.725 304.223 358.462 297.397 346.46C290.571 334.459 275.308 330.263 263.306 337.09C216.803 363.54 167.333 333.818 167.333 266.999C167.333 200.118 216.69 170.471 263.279 197.048C275.272 203.889 290.54 199.713 297.382 187.72C304.223 175.727 300.047 160.459 288.054 153.617Z" fill="black"/>
<path d="M538.054 153.617C457.774 107.822 367.333 162.146 367.333 266.999C367.333 371.777 457.846 426.156 538.026 380.551C550.028 373.725 554.223 358.462 547.397 346.46C540.571 334.459 525.308 330.263 513.306 337.09C466.803 363.54 417.333 333.818 417.333 266.999C417.333 200.118 466.69 170.471 513.279 197.048C525.272 203.889 540.54 199.713 547.382 187.72C554.223 175.727 550.047 160.459 538.054 153.617Z" fill="black"/>
</svg>
